<svg xmlns="http://www.w3.org/2000/svg" viewBox="5144.6201171875 4875.83203125 2109.92333984375 807.19580078125"> <path fill="transparent" fill-opacity="1" stroke="#B2E0DE" stroke-opacity="0.5" stroke-width="0.5" id="tSvgaea331f5fe" d="M 6200.991279079862 5279.586723524305 C 6770.898279079862 5682.527723524305 6770.898279079862 5682.527723524305 6770.898279079862 5682.527723524305 C 6770.898279079862 5682.527723524305 6462.376279079861 5682.527723524305 6462.376279079861 5682.527723524305 C 6462.376279079861 5682.527723524305 5892.469279079862 5279.586723524305 5892.469279079862 5279.586723524305 C 5892.469279079862 5279.586723524305 6200.991279079862 5279.586723524305 6200.991279079862 5279.586723524305"></path> <path fill="transparent" fill-opacity="1" stroke="#B2E0DE" stroke-opacity="0.5" stroke-width="0.5" id="tSvg5683767aca" d="M 5453.234279079861 5083.491723524305 C 6023.5491790798615 5486.4327235243045 6023.5491790798615 5486.4327235243045 6023.5491790798615 5486.4327235243045 C 6023.5491790798615 5486.4327235243045 5715.027279079862 5486.4327235243045 5715.027279079862 5486.4327235243045 C 5715.027279079862 5486.4327235243045 5145.120279079862 5083.491723524305 5145.120279079862 5083.491723524305 C 5145.120279079862 5083.491723524305 5453.234279079861 5083.491723524305 5453.234279079861 5083.491723524305"></path> <path fill="transparent" fill-opacity="1" stroke="#B2E0DE" stroke-opacity="0.5" stroke-width="0.5" id="tSvg166341e1ef9" d="M 6683.728279079862 5078.213723524304 C 7254.043279079861 5481.154723524305 7254.043279079861 5481.154723524305 7254.043279079861 5481.154723524305 C 7254.043279079861 5481.154723524305 6945.520279079861 5481.154723524305 6945.520279079861 5481.154723524305 C 6945.520279079861 5481.154723524305 6375.206279079861 5078.213723524304 6375.206279079861 5078.213723524304 C 6375.206279079861 5078.213723524304 6683.728279079862 5078.213723524304 6683.728279079862 5078.213723524304"></path> <path fill="transparent" fill-opacity="1" stroke="#B2E0DE" stroke-opacity="0.5" stroke-width="0.5" id="tSvgd64fc04ce2" d="M 5939.644379079861 4876.332136524305 C 6509.958279079861 5279.272723524305 6509.958279079861 5279.272723524305 6509.958279079861 5279.272723524305 C 6509.958279079861 5279.272723524305 6201.437279079862 5279.272723524305 6201.437279079862 5279.272723524305 C 6201.437279079862 5279.272723524305 5631.530279079861 4876.332136524305 5631.530279079861 4876.332136524305 C 5631.530279079861 4876.332136524305 5939.644379079861 4876.332136524305 5939.644379079861 4876.332136524305"></path> <defs></defs> </svg>