<svg xmlns="http://www.w3.org/2000/svg" viewBox="5934.60009765625 4872.3603515625 210.9287109375 37"> <path fill="#B2E0DE" fill-opacity="1" stroke="" stroke-opacity="1" stroke-width="1" id="tSvg3ee89182" d="M 5991.148099999999 4908.36015625 C 5980.587399999999 4908.36015625 5980.587399999999 4908.36015625 5980.587399999999 4908.36015625 C 5980.587399999999 4908.36015625 5961.11 4890.86015625 5961.11 4890.86015625 C 5961.11 4890.86015625 5971.6707 4890.86015625 5971.6707 4890.86015625 C 5971.6707 4890.86015625 5991.148099999999 4908.36015625 5991.148099999999 4908.36015625"></path> <path fill="#B2E0DE" fill-opacity="1" stroke="" stroke-opacity="1" stroke-width="1" id="tSvg189f62ea5a7" d="M 5965.637999999999 4899.8541562499995 C 5955.077399999999 4899.8541562499995 5955.077399999999 4899.8541562499995 5955.077399999999 4899.8541562499995 C 5955.077399999999 4899.8541562499995 5935.599999999999 4882.35417625 5935.599999999999 4882.35417625 C 5935.599999999999 4882.35417625 5946.1467999999995 4882.35417625 5946.1467999999995 4882.35417625 C 5946.1467999999995 4882.35417625 5965.637999999999 4899.8541562499995 5965.637999999999 4899.8541562499995"></path> <path fill="white" fill-opacity="1" stroke="" stroke-opacity="1" stroke-width="1" id="tSvg81876a96d6" d="M 6007.713599999999 4899.617156249999 C 5997.152899999999 4899.617156249999 5997.152899999999 4899.617156249999 5997.152899999999 4899.617156249999 C 5997.152899999999 4899.617156249999 5977.661599999999 4882.11712625 5977.661599999999 4882.11712625 C 5977.661599999999 4882.11712625 5988.222299999999 4882.11712625 5988.222299999999 4882.11712625 C 5988.222299999999 4882.11712625 6007.713599999999 4899.617156249999 6007.713599999999 4899.617156249999"></path> <path fill="white" fill-opacity="1" stroke="" stroke-opacity="1" stroke-width="1" id="tSvg3233e22b32" d="M 5982.315 4890.86015625 C 5971.7543 4890.86015625 5971.7543 4890.86015625 5971.7543 4890.86015625 C 5971.7543 4890.86015625 5952.276999999999 4873.36015625 5952.276999999999 4873.36015625 C 5952.276999999999 4873.36015625 5962.823699999999 4873.36015625 5962.823699999999 4873.36015625 C 5962.823699999999 4873.36015625 5982.315 4890.86015625 5982.315 4890.86015625"></path> <path fill="white" fill-opacity="1" stroke="" stroke-opacity="1" stroke-width="1" id="tSvg1567a06117b" d="M 6045.246999999999 4878.56135625 C 6049.1759999999995 4878.56135625 6052.199 4881.58724625 6052.199 4885.519556249999 C 6052.199 4887.945856249999 6050.986999999999 4889.99565625 6049.147999999999 4891.09725625 C 6051.489 4892.12905625 6053.076999999999 4894.45775625 6053.076999999999 4897.27445625 C 6053.076999999999 4901.19285625 6050.053999999999 4904.23265625 6046.124999999999 4904.23265625 C 6017.953799999999 4904.23265625 6017.953799999999 4904.23265625 6017.953799999999 4904.23265625 C 6017.953799999999 4904.23265625 6017.953799999999 4878.56135625 6017.953799999999 4878.56135625 C 6017.953799999999 4878.56135625 6045.246999999999 4878.56135625 6045.246999999999 4878.56135625 M 6024.808499999999 4889.38205625 C 6042.739 4889.38205625 6042.739 4889.38205625 6042.739 4889.38205625 C 6044.215999999999 4889.38205625 6045.3589999999995 4888.23865625 6045.3589999999995 4886.77445625 C 6045.3589999999995 4885.31035625 6044.215999999999 4884.16695625 6042.739 4884.16695625 C 6024.808499999999 4884.16695625 6024.808499999999 4884.16695625 6024.808499999999 4884.16695625 C 6024.808499999999 4884.16695625 6024.808499999999 4889.39605625 6024.808499999999 4889.39605625 C 6024.808499999999 4889.39605625 6024.808499999999 4889.38205625 6024.808499999999 4889.38205625 M 6024.808499999999 4898.64105625 C 6043.602999999999 4898.64105625 6043.602999999999 4898.64105625 6043.602999999999 4898.64105625 C 6045.079999999999 4898.64105625 6046.222 4897.49765625 6046.222 4896.03345625 C 6046.222 4894.56935625 6045.079999999999 4893.42585625 6043.602999999999 4893.42585625 C 6024.808499999999 4893.42585625 6024.808499999999 4893.42585625 6024.808499999999 4893.42585625 C 6024.808499999999 4893.42585625 6024.808499999999 4898.6549562499995 6024.808499999999 4898.6549562499995 C 6024.808499999999 4898.6549562499995 6024.808499999999 4898.64105625 6024.808499999999 4898.64105625"></path> <path fill="white" fill-opacity="1" stroke="" stroke-opacity="1" stroke-width="1" id="tSvg127b0fb3fd2" d="M 6063.428999999999 4878.56135625 C 6063.428999999999 4904.218756249999 6063.428999999999 4904.218756249999 6063.428999999999 4904.218756249999 C 6063.428999999999 4904.218756249999 6056.574 4904.218756249999 6056.574 4904.218756249999 C 6056.574 4904.218756249999 6056.574 4878.56135625 6056.574 4878.56135625 C 6056.574 4878.56135625 6063.428999999999 4878.56135625 6063.428999999999 4878.56135625"></path> <path fill="white" fill-opacity="1" stroke="" stroke-opacity="1" stroke-width="1" id="tSvg1596bb88127" d="M 6071.648999999999 4878.56135625 C 6094.303 4895.94975625 6094.303 4895.94975625 6094.303 4895.94975625 C 6094.303 4895.94975625 6094.303 4878.56135625 6094.303 4878.56135625 C 6094.303 4878.56135625 6101.156999999999 4878.56135625 6101.156999999999 4878.56135625 C 6101.156999999999 4878.56135625 6101.156999999999 4904.218756249999 6101.156999999999 4904.218756249999 C 6101.156999999999 4904.218756249999 6096.420999999999 4904.218756249999 6096.420999999999 4904.218756249999 C 6096.420999999999 4904.218756249999 6073.767 4886.830256249999 6073.767 4886.830256249999 C 6073.767 4886.830256249999 6073.767 4904.218756249999 6073.767 4904.218756249999 C 6073.767 4904.218756249999 6066.911999999999 4904.218756249999 6066.911999999999 4904.218756249999 C 6066.911999999999 4904.218756249999 6066.911999999999 4878.56135625 6066.911999999999 4878.56135625 C 6066.911999999999 4878.56135625 6071.648999999999 4878.56135625 6071.648999999999 4878.56135625"></path> <path fill="white" fill-opacity="1" stroke="" stroke-opacity="1" stroke-width="1" id="tSvg120eaaf0ce" d="M 6124.688999999999 4878.56135625 C 6144.5289999999995 4904.218756249999 6144.5289999999995 4904.218756249999 6144.5289999999995 4904.218756249999 C 6144.5289999999995 4904.218756249999 6136.907999999999 4904.218756249999 6136.907999999999 4904.218756249999 C 6136.907999999999 4904.218756249999 6133.549999999999 4899.7147562499995 6133.549999999999 4899.7147562499995 C 6133.549999999999 4899.7147562499995 6113.250999999999 4899.7147562499995 6113.250999999999 4899.7147562499995 C 6113.250999999999 4899.7147562499995 6109.892999999999 4904.218756249999 6109.892999999999 4904.218756249999 C 6109.892999999999 4904.218756249999 6102.258 4904.218756249999 6102.258 4904.218756249999 C 6102.258 4904.218756249999 6122.097999999999 4878.56135625 6122.097999999999 4878.56135625 C 6122.097999999999 4878.56135625 6124.688999999999 4878.56135625 6124.688999999999 4878.56135625 M 6116.803 4895.28045625 C 6129.968999999999 4895.28045625 6129.968999999999 4895.28045625 6129.968999999999 4895.28045625 C 6129.968999999999 4895.28045625 6123.392999999999 4886.45375625 6123.392999999999 4886.45375625 C 6123.392999999999 4886.45375625 6116.803 4895.28045625 6116.803 4895.28045625"></path> <defs></defs> </svg>